<?xml version="1.0" standalone="no"?>
<!DOCTYPE svg PUBLIC "-//W3C//DTD SVG 20010904//EN"
 "http://www.w3.org/TR/2001/REC-SVG-20010904/DTD/svg10.dtd">
<svg version="1.0" xmlns="http://www.w3.org/2000/svg"
 width="1143.000000pt" height="276.000000pt" viewBox="0 0 1143.000000 276.000000"
 preserveAspectRatio="xMidYMid meet">

<g transform="translate(0.000000,276.000000) scale(0.100000,-0.100000)"
fill="#000000" stroke="none">
<path d="M1238 2749 c-106 -13 -256 -52 -368 -96 -112 -45 -295 -152 -295
-173 0 -13 102 -16 825 -23 454 -4 831 -5 837 -2 27 10 10 35 -50 73 -154 97
-327 167 -500 203 -118 24 -333 33 -449 18z"/>
<path d="M3652 1992 c-40 -273 -72 -503 -72 -509 0 -16 210 -19 210 -3 0 12
100 682 103 694 2 5 52 -151 112 -347 l109 -357 101 0 100 0 70 228 c141 463
147 480 156 447 4 -16 29 -175 55 -352 l48 -323 108 0 c107 0 108 0 103 23 -7
31 -145 967 -145 983 0 11 -27 14 -133 14 l-134 0 -109 -370 c-60 -203 -111
-370 -114 -370 -3 0 -45 129 -93 288 -48 158 -99 324 -113 370 l-25 82 -132 0
-132 0 -73 -498z"/>
<path d="M5155 2236 c-27 -7 -67 -20 -87 -29 l-38 -16 0 -87 c0 -78 2 -85 18
-79 80 34 119 45 174 50 108 9 166 -28 171 -110 l2 -40 -115 -7 c-222 -12
-310 -79 -310 -233 0 -142 84 -211 277 -230 61 -6 247 6 323 22 l30 6 0 261
c0 183 -4 278 -14 318 -29 125 -113 181 -281 185 -59 1 -121 -3 -150 -11z
m235 -535 c0 -99 -2 -101 -70 -101 -94 0 -150 34 -150 90 0 70 45 99 153 100
l67 0 0 -89z"/>
<path d="M6759 2234 c-103 -31 -187 -112 -230 -221 -31 -78 -34 -243 -5 -318
41 -107 108 -175 216 -217 105 -41 333 -26 418 28 20 13 22 22 22 98 l0 84
-62 -26 c-75 -30 -222 -42 -283 -22 -63 21 -135 98 -135 145 0 13 32 15 257
15 l256 0 -6 98 c-3 54 -13 120 -23 148 -32 95 -100 163 -192 190 -58 18 -174
17 -233 -2z m195 -175 c30 -24 50 -59 61 -106 l7 -33 -162 0 -161 0 7 23 c8
27 29 66 47 89 40 50 152 65 201 27z"/>
<path d="M7595 2244 c-68 -10 -125 -24 -178 -44 l-57 -21 0 -355 0 -354 105 0
105 0 0 285 0 284 35 7 c41 7 183 1 208 -10 16 -7 17 0 17 92 l0 100 -32 6
c-46 9 -167 15 -203 10z"/>
<path d="M8073 2239 c-24 -4 -63 -17 -88 -28 l-45 -20 0 -85 c0 -47 2 -86 5
-86 3 0 22 8 43 19 52 26 148 44 195 37 81 -13 117 -50 117 -120 l0 -33 -112
-5 c-82 -4 -128 -11 -169 -27 -93 -36 -149 -113 -149 -206 0 -173 165 -256
455 -226 63 6 128 14 144 17 l31 6 0 277 c0 327 -5 355 -74 419 -28 26 -64 46
-97 56 -56 17 -184 20 -256 5z m227 -538 c0 -84 -1 -89 -22 -95 -62 -16 -153
1 -184 35 -37 41 -15 117 41 140 11 4 53 8 93 8 l72 1 0 -89z"/>
<path d="M5660 2223 c0 -5 65 -174 143 -378 l143 -370 124 0 123 0 138 360
c77 198 141 368 145 378 5 16 -3 17 -102 15 l-107 -3 -95 -273 c-52 -150 -98
-269 -102 -265 -4 4 -49 128 -101 276 l-93 267 -108 0 c-59 0 -108 -3 -108 -7z"/>
<path d="M248 2135 c-42 -23 -169 -258 -150 -276 4 -4 126 -8 271 -10 l264 -4
60 137 c33 75 57 144 54 153 -9 22 -458 22 -499 0z"/>
<path d="M1145 2130 c-38 -16 -68 -54 -105 -134 -20 -45 -122 -276 -226 -514
-122 -280 -194 -431 -202 -430 -7 2 -51 89 -97 195 -46 106 -91 204 -100 217
-9 14 -36 34 -60 46 -38 18 -58 20 -191 18 l-149 -3 -7 -73 c-4 -39 -4 -105 0
-145 l7 -72 79 -5 80 -5 172 -390 c117 -263 182 -397 199 -412 35 -31 95 -31
130 0 18 15 112 219 315 682 160 362 300 670 313 683 12 13 31 29 42 35 14 9
210 13 695 17 635 5 675 6 678 23 5 26 -97 224 -130 252 l-30 25 -696 -1
c-383 0 -706 -4 -717 -9z"/>
<path d="M1553 1509 c-23 -11 -49 -31 -57 -45 -23 -34 -96 -202 -96 -219 0
-13 94 -15 704 -15 l703 0 5 83 c3 45 3 111 -1 147 l-6 65 -605 3 c-595 2
-606 2 -647 -19z"/>
<path d="M6640 645 l0 -415 60 0 60 0 0 415 0 415 -60 0 -60 0 0 -415z"/>
<path d="M7470 655 l0 -404 43 -13 c59 -18 243 -17 287 1 74 31 117 69 149
133 59 116 36 268 -51 344 -57 50 -115 67 -205 62 -43 -3 -86 -9 -95 -13 -17
-7 -18 4 -18 144 l0 151 -55 0 -55 0 0 -405z m300 3 c64 -32 90 -76 90 -150 0
-133 -92 -205 -235 -184 l-45 7 2 162 3 162 35 12 c54 18 101 15 150 -9z"/>
<path d="M5919 992 c-50 -41 -17 -122 51 -122 46 0 70 25 70 73 0 61 -70 89
-121 49z"/>
<path d="M9170 990 c-26 -26 -26 -81 -2 -103 25 -23 85 -22 105 1 25 28 22 87
-5 106 -31 22 -74 20 -98 -4z"/>
<path d="M4230 908 c11 -29 73 -192 138 -363 l118 -310 75 -3 75 -3 133 353
c74 194 136 359 139 366 3 9 -13 12 -60 12 l-65 0 -108 -300 c-59 -165 -110
-298 -113 -296 -2 3 -52 137 -111 298 l-106 293 -68 3 -67 3 20 -53z"/>
<path d="M1231 878 c-10 -24 -37 -85 -60 -136 -22 -51 -41 -99 -41 -106 0 -18
260 -26 886 -26 340 0 521 4 542 11 20 7 42 28 61 57 39 61 101 192 101 213 0
25 -129 29 -842 29 l-629 0 -18 -42z"/>
<path d="M3590 762 c-45 -17 -45 -18 -48 -69 l-3 -51 53 20 c39 14 69 19 112
16 71 -5 96 -29 96 -89 l0 -39 -47 0 c-65 0 -165 -22 -197 -44 -63 -41 -84
-128 -47 -196 12 -23 36 -44 67 -60 42 -22 61 -25 149 -25 55 0 122 4 148 8
l48 8 -3 212 c-3 241 -9 262 -84 304 -50 29 -175 31 -244 5z m210 -372 l0 -80
-62 0 c-84 0 -128 25 -128 73 0 56 48 85 138 86 l52 1 0 -80z"/>
<path d="M5055 761 c-134 -62 -192 -252 -120 -396 33 -67 94 -116 168 -136 57
-15 175 -5 231 20 46 20 46 20 46 70 0 28 -1 51 -3 51 -2 0 -22 -9 -46 -21
-24 -11 -72 -23 -109 -25 -57 -5 -74 -2 -112 18 -49 25 -90 77 -90 114 l0 24
191 0 192 0 -8 72 c-11 118 -43 174 -120 209 -54 25 -166 25 -220 0z m177 -93
c23 -11 48 -60 48 -93 l0 -25 -130 0 c-71 0 -130 2 -130 5 0 18 31 75 51 94
40 37 110 46 161 19z"/>
<path d="M5632 770 c-18 -4 -53 -15 -78 -25 l-44 -17 0 -249 0 -249 60 0 60 0
0 210 0 210 28 11 c16 7 57 9 100 5 l72 -6 0 54 c0 52 -1 54 -31 60 -41 8
-125 6 -167 -4z"/>
<path d="M6230 758 c-60 -31 -82 -75 -77 -152 3 -53 7 -62 39 -92 23 -21 61
-40 105 -53 87 -26 113 -44 113 -80 0 -68 -102 -88 -200 -39 l-50 25 0 -54 c0
-53 1 -54 38 -70 52 -22 152 -28 207 -13 89 25 136 102 116 190 -14 64 -52 97
-148 126 -113 34 -143 79 -85 124 33 27 98 24 161 -7 l41 -20 0 52 c0 52 0 53
-40 69 -61 24 -166 21 -220 -6z"/>
<path d="M8750 757 c-60 -31 -82 -76 -77 -151 3 -53 7 -62 39 -92 23 -21 61
-40 105 -53 87 -26 113 -44 113 -80 0 -68 -102 -88 -200 -39 l-50 25 0 -54 c0
-53 1 -54 38 -70 52 -22 152 -28 207 -13 118 33 161 167 83 256 -23 27 -49 40
-114 60 -91 27 -122 54 -109 94 20 63 107 64 228 2 4 -2 7 19 7 48 0 50 -1 51
-42 70 -63 29 -171 27 -228 -3z"/>
<path d="M9545 773 c-11 -2 -44 -11 -72 -19 l-53 -15 0 -254 0 -255 60 0 60 0
0 215 0 215 28 7 c15 4 55 7 90 8 59 0 66 -2 93 -33 l29 -32 0 -190 0 -190 60
0 60 0 0 180 c0 98 -5 202 -11 229 -22 105 -82 141 -229 140 -52 -1 -104 -3
-115 -6z"/>
<path d="M10153 759 c-94 -46 -145 -138 -145 -261 0 -138 59 -222 184 -264 64
-21 177 -14 242 15 46 20 46 20 46 70 l0 50 -47 -22 c-62 -28 -182 -30 -230
-4 -38 20 -71 64 -79 106 l-6 31 192 0 193 0 -6 69 c-13 159 -84 231 -229 231
-54 0 -84 -5 -115 -21z m179 -91 c21 -10 44 -53 49 -88 l4 -25 -132 -3 -132
-3 9 32 c25 85 123 128 202 87z"/>
<path d="M10670 758 c-60 -31 -82 -75 -77 -152 3 -53 7 -62 39 -92 23 -21 61
-40 105 -53 87 -26 113 -44 113 -80 0 -68 -102 -88 -200 -39 l-50 25 0 -54 c0
-53 1 -54 38 -70 52 -22 152 -28 208 -13 86 24 135 104 115 190 -14 64 -52 97
-148 126 -113 34 -143 79 -85 124 33 27 98 24 161 -7 l41 -20 0 52 c0 52 0 53
-40 69 -61 24 -166 21 -220 -6z"/>
<path d="M11145 766 c-98 -44 -125 -178 -51 -252 22 -22 54 -39 106 -54 94
-28 112 -43 108 -89 -3 -32 -7 -37 -42 -49 -32 -10 -49 -10 -97 3 -33 8 -70
22 -84 31 l-25 16 0 -56 c0 -56 1 -57 38 -74 53 -23 205 -23 249 0 52 29 78
75 78 139 0 31 -7 68 -15 83 -18 34 -76 69 -150 90 -30 8 -63 21 -74 29 -27
19 -24 66 5 90 30 24 113 18 165 -12 19 -12 37 -21 40 -21 3 0 4 24 2 52 -3
47 -6 54 -33 68 -41 20 -181 24 -220 6z"/>
<path d="M5910 500 l0 -270 60 0 60 0 0 270 0 270 -60 0 -60 0 0 -270z"/>
<path d="M6886 651 c-60 -65 -109 -123 -109 -127 0 -5 51 -73 114 -151 l114
-142 73 0 72 -1 -120 145 c-66 79 -120 148 -120 152 0 4 53 61 117 125 l118
118 -76 0 -75 0 -108 -119z"/>
<path d="M8092 551 c3 -249 5 -253 89 -301 40 -23 55 -25 159 -25 63 0 136 4
163 8 l47 8 0 265 0 264 -60 0 -60 0 0 -225 0 -225 -80 0 c-74 0 -82 2 -112
29 l-33 29 -3 196 -4 196 -54 0 -55 0 3 -219z"/>
<path d="M9160 500 l0 -270 60 0 60 0 0 270 0 270 -60 0 -60 0 0 -270z"/>
<path d="M963 272 c-8 -20 -28 -65 -43 -98 -15 -34 -25 -66 -21 -72 9 -14 153
-58 257 -78 122 -24 375 -24 504 0 173 31 371 109 520 204 58 37 74 53 62 63
-4 4 -290 9 -635 12 l-628 7 -16 -38z"/>
</g>
</svg>
